/* XPM */
static char *barn[] = {
/* columns rows colors chars-per-pixel */
"32 32 5 1 ",
"  c #5C4033",  // The Dirt Background
". c #3E2723",  // Dark Frame
"r c #8B0000",  // Red Planks
"w c #DDDDDD",  // White Cross
"d c #5D4037",  // Wood Detail
/* pixels */
"                                ",
"      ....................      ",
"      .rrrrrrrrrrrrrrrrrr.      ",
"      .rrrrrrrrrrrrrrrrrr.      ",
"      .rrrrwrrrrrrrrwrrrr.      ",
"      .rrrrwwrrrrrrwwrrrr.      ",
"      .rrrrwwwrrrrwwwrrrr.      ",
"      .rrrrwwwwrrwwwwrrrr.      ",
"      .rrrrwwwwwwwwwrrrrr.      ",
"      .rrrrwwwwwwwwrrrrrr.      ",
"      .rrrrwwwwwwwwrrrrrr.      ",
"      .rrrrwwwrrwwwrrrrrr.      ",
"      .rrrrwwrrrrwwrrrrrr.      ",
"      .rrrrwrrrrrrwrrrrrr.      ",
"      .rrrrrrrrrrrrrrrrrr.      ",
"      .rrrrrrrrrrrrrrrrrr.      ",
"      .rrrrrrrrrrrrrrrrrr.      ",
"      .rrrrrrrrrrrrrrrrrr.      ",
"      .rrrrrrrrrrrrrrrrrr.      ",
"      .rrrrrrrrrrrrrrrrrr.      ",
"      .rrrrrrrrrrrrrrrrrr.      ",
"      .rrrrrrrrrrrrrrrrrr.      ",
"      .rrrrrrrrrrrrrrrrrr.      ",
"      .rrrrrrrrrrrrrrrrrr.      ",
"      .rrrrrrrrrrrrrrrrrr.      ",
"      .rrrrrrrrrrrrrrrrrr.      ",
"      ....................      ",
"                                ",
"                                ",
"                                ",
"                                ",
"                                "
};
