/* XPM */
static char *barn[] = {
/* columns rows colors chars-per-pixel */
"32 32 5 1 ",
"  c None",
". c #3E2723",
"r c #8B0000",
"w c #FFFFFF",
"d c #5D4037",
/* pixels */
"................................",
".rrrrrrrrrrrrrrrrrrrrrrrrrrrrrr.",
".rrrrrrrrrrrrrrrrrrrrrrrrrrrrrr.",
".rrrrrrrrrrrrrrrrrrrrrrrrrrrrrr.",
".rrrrwrrrrrrrrrrrrrrrrrrrrwrrrr.",
".rrrrwwrrrrrrrrrrrrrrrrrrwwrrrr.",
".rrrrwwwrrrrrrrrrrrrrrrrwwwrrrr.",
".rrrrwwwwrrrrrrrrrrrrrrwwwwrrrr.",
".rrrrwwwwwrrrrrrrrrrrrwwwwwrrrr.",
".rrrrwwwwwwrrrrrrrrrrwwwwwwrrrr.",
".rrrrwwwwwwwrrrrrrrrwwwwwwwrrrr.",
".rrrrwwwwwwwwrrrrrrwwwwwwwwrrrr.",
".rrrrwwwwwwwwwrrrrwwwwwwwwwrrrr.",
".rrrrwwwwwwwwwwrrwwwwwwwwwwrrrr.",
".rrrrwwwwwwwwwwwwwwwwwwwwwwrrrr.",
".rrrrwwwwwwwwwwwwwwwwwwwwwwrrrr.",
".rrrrwwwwwwwwwwwwwwwwwwwwwwrrrr.",
".rrrrwwwwwwwwwwrrwwwwwwwwwwrrrr.",
".rrrrwwwwwwwwwrrrrwwwwwwwwwrrrr.",
".rrrrwwwwwwwwrrrrrrwwwwwwwwrrrr.",
".rrrrwwwwwwwrrrrrrrrwwwwwwwrrrr.",
".rrrrwwwwwwrrrrrrrrrrwwwwwwrrrr.",
".rrrrwwwwwrrrrrrrrrrrrwwwwwrrrr.",
".rrrrwwwwrrrrrrrrrrrrrrwwwwrrrr.",
".rrrrwwwrrrrrrrrrrrrrrrrwwwrrrr.",
".rrrrwwrrrrrrrrrrrrrrrrrrwwrrrr.",
".rrrrwrrrrrrrrrrrrrrrrrrrrwrrrr.",
".rrrrrrrrrrrrrrrrrrrrrrrrrrrrrr.",
".rrrrrrrrrrrrrrrrrrrrrrrrrrrrrr.",
".rrrrrrrrrrrrrrrrrrrrrrrrrrrrrr.",
"................................",
"                                "
};

