/* XPM */
static char *ground[] = {
/* columns rows colors chars-per-pixel */
"32 32 3 1 ",
"d c #5C4033",
"l c #8B4513",
". c #3E2723",
/* pixels */
"dllldldlldddlldldllddlldldllddld",
"ldldlddlldlddlldlddlldldddlldldl",
"ddldldlddldldlddldlddldldlddldld",
"dldlldlddldlldlddldlddldlldlddld",
"ldddldldldddldldldddldldddldldld",
"dldldldddldldldddldldldddldldldd",
"ldlldlddlldlldlddlldlldlddlldldl",
"ddldldlddldldlddldldlddldldlddld",
"dldlldlddldlldlddldlldlddldlldld",
"ldddldldldddldldldddldldldddldld",
"dldldldddldldldddldldldddldldldd",
"ldlldlddlldlldlddlldlldlddlldldl",
"ddldldlddldldlddldldlddldldlddld",
"dldlldlddldlldlddldlldlddldlldld",
"ldddldldldddldldldddldldldddldld",
"dldldldddldldldddldldldddldldldd",
"dllldldlldddlldldllddlldldllddld",
"ldldlddlldlddlldlddlldldddlldldl",
"ddldldlddldldlddldlddldldlddldld",
"dldlldlddldlldlddldlddldlldlddld",
"ldddldldldddldldldddldldddldldld",
"dldldldddldldldddldldldddldldldd",
"ldlldlddlldlldlddlldlldlddlldldl",
"ddldldlddldldlddldldlddldldlddld",
"dldlldlddldlldlddldlldlddldlldld",
"ldddldldldddldldldddldldldddldld",
"dldldldddldldldddldldldddldldldd",
"ldlldlddlldlldlddlldlldlddlldldl",
"ddldldlddldldlddldldlddldldlddld",
"dldlldlddldlldlddldlldlddldlldld",
"ldddldldldddldldldddldldldddldld",
"dldldldddldldldddldldldddldldldd"
};

