/* XPM */
static char *player[] = {
/* columns rows colors chars-per-pixel */
"32 32 5 1 ",
"  c None",
". c #000000",
"w c #FFFFFF",
"g c #808080",
"p c #FFC0CB",
/* pixels */
"                                ",
"                                ",
"           ..      ..           ",
"          .gg.    .gg.          ",
"          .gg......gg.          ",
"           .wwwwwwww.           ",
"           .w.wwww.w.           ",
"           .wwwwwwww.           ",
"           .wwwwwwww.           ",
"           ..wwwwww..           ",
"          .ww......ww.          ",
"         .wwwwwwwwwwww.         ",
"        .wwwwwwwwwwwwww.        ",
"        .wwwwwwwwwwwwww.        ",
"       .wwwwwwwwwwwwwwww.       ",
"       .wwwwwwwwwwwwwwww.       ",
"       .wwwwwwwwwwwwwwww.       ",
"       .wwwwwwwwwwwwwwww.       ",
"       .wwwwwwwwwwwwwwww.       ",
"        .ww...wwww...ww.        ",
"         ..   .ww.   ..         ",
"              .ww.              ",
"              .ww.              ",
"              .ww.              ",
"             .w..w.             ",
"             .w..w.             ",
"             .w..w.             ",
"             .w..w.             ",
"             ..  ..             ",
"                                ",
"                                ",
"                                "
};

