/* XPM */
static char *goat_on_barn[] = {
/* columns rows colors chars-per-pixel */
"32 32 8 1 ",
"  c #5C4033",  // Dirt (Corners)
". c #3E2723",  // Barn Frame
"r c #8B0000",  // Barn Red
"w c #DDDDDD",  // Barn White
"W c #FFFFFF",  // Goat White
"X c #111111",  // Goat Black
"o c #808080",  // Goat Horns
"+ c #FFC0CB",  // Goat Ears
/* pixels */
"                                ",
"      ....................      ",
"      .rrrrrrrrrrrrrrrrrr.      ",
"      .rrrrrrrrrrrrrrrrrr.      ",
"      .rrrrwrrrrrrrrwrrrr.      ",
"      .rrrrwwrrrrrrwwrrrr.      ",
"      .roorwwwrrrrwwroor..      ",
"      .rooowwwwrrwwwoo.rr.      ",
"      .rooowwwwwwwwooorrr.      ",
"      .rooorwwwwwwwrooorr.      ",
"      .rr.+..WWWWW..+.rrr.      ",
"      .rrr...WWWWW...rrrr.      ",
"      .rrr...X.W.X...rrrr.      ",
"      .rrr...WWWWW...rrrr.      ",
"      .rrrr..XXXXX..rrrrr.      ",
"      .rrrr..XXXXX..rrrrr.      ",
"      .rrrr.WWWWWWW.rrrrr.      ",
"      .rrrr..WWWWW..rrrrr.      ",
"      .rrrr.WWWWWWW.rrrrr.      ",
"      .rrrr.WWWWWWW.rrrrr.      ",
"      .rrrr.WWWWWWW.rrrrr.      ",
"      .rrrr.WWWWWWW.rrrrr.      ",
"      .rrrr.WWWWWWW.rrrrr.      ",
"      .rrrr.WW.W.WW.rrrrr.      ",
"      .rrrr.WW.W.WW.rrrrr.      ",
"      .rrrrXXrrrrrXXrrrrr.      ",
"      .....XX.....XX......      ",
"                                ",
"                                ",
"                                ",
"                                ",
"                                "
};

